<svg width="392" height="135" viewBox="0 0 392 135" fill="none" xmlns="http://www.w3.org/2000/svg">
<mask id="mask0_134_32860" style="mask-type:alpha" maskUnits="userSpaceOnUse" x="0" y="4" width="388" height="130">
<path fill-rule="evenodd" clip-rule="evenodd" d="M388 4H0V69H388V4ZM388 69.5039H216V134H388V69.5039Z" fill="#838383"/>
</mask>
<g mask="url(#mask0_134_32860)">
<path d="M-18.9026 134L1.09741 4" stroke="#E1E1E1"/>
<path d="M-13.9026 134L6.09741 4" stroke="#E1E1E1"/>
<path d="M-8.90259 134L11.0974 4" stroke="#E1E1E1"/>
<path d="M-3.90259 134L16.0974 4" stroke="#E1E1E1"/>
<path d="M1.09741 134L21.0974 4" stroke="#E1E1E1"/>
<path d="M6.09741 134L26.0974 4" stroke="#E1E1E1"/>
<path d="M11.0974 134L31.0974 4" stroke="#E1E1E1"/>
<path d="M16.0974 134L36.0974 4" stroke="#E1E1E1"/>
<path d="M21.0974 134L41.0974 4" stroke="#E1E1E1"/>
<path d="M26.0974 134L46.0974 4" stroke="#E1E1E1"/>
<path d="M31.0974 134L51.0974 4" stroke="#E1E1E1"/>
<path d="M36.0974 134L56.0974 4" stroke="#E1E1E1"/>
<path d="M41.0974 134L61.0974 4" stroke="#E1E1E1"/>
<path d="M46.0974 134L66.0974 4" stroke="#E1E1E1"/>
<path d="M51.0974 134L71.0974 4" stroke="#E1E1E1"/>
<path d="M56.0974 134L76.0974 4" stroke="#E1E1E1"/>
<path d="M61.0974 134L81.0974 4" stroke="#E1E1E1"/>
<path d="M66.0974 134L86.0974 4" stroke="#E1E1E1"/>
<path d="M71.0974 134L91.0974 4" stroke="#E1E1E1"/>
<path d="M76.0974 134L96.0974 4" stroke="#E1E1E1"/>
<path d="M81.0974 134L101.097 4" stroke="#E1E1E1"/>
<path d="M86.0974 134L106.097 4" stroke="#E1E1E1"/>
<path d="M91.0974 134L111.097 4" stroke="#E1E1E1"/>
<path d="M96.0974 134L116.097 4" stroke="#E1E1E1"/>
<path d="M101.097 134L121.097 4" stroke="#E1E1E1"/>
<path d="M106.097 134L126.097 4" stroke="#E1E1E1"/>
<path d="M111.097 134L131.097 4" stroke="#E1E1E1"/>
<path d="M116.097 134L136.097 4" stroke="#E1E1E1"/>
<path d="M121.097 134L141.097 4" stroke="#E1E1E1"/>
<path d="M126.097 134L146.097 4" stroke="#E1E1E1"/>
<path d="M131.097 134L151.097 4" stroke="#E1E1E1"/>
<path d="M136.097 134L156.097 4" stroke="#E1E1E1"/>
<path d="M141.097 134L161.097 4" stroke="#E1E1E1"/>
<path d="M146.097 134L166.097 4" stroke="#E1E1E1"/>
<path d="M151.097 134L171.097 4" stroke="#E1E1E1"/>
<path d="M156.097 134L176.097 4" stroke="#E1E1E1"/>
<path d="M161.097 134L181.097 4" stroke="#E1E1E1"/>
<path d="M166.097 134L186.097 4" stroke="#E1E1E1"/>
<path d="M171.097 134L191.097 4" stroke="#E1E1E1"/>
<path d="M176.097 134L196.097 4" stroke="#E1E1E1"/>
<path d="M181.097 134L201.097 4" stroke="#E1E1E1"/>
<path d="M186.097 134L206.097 4" stroke="#E1E1E1"/>
<path d="M191.097 134L211.097 4" stroke="#E1E1E1"/>
<path d="M196.097 134L216.097 4" stroke="#E1E1E1"/>
<path d="M201.097 134L221.097 4" stroke="#E1E1E1"/>
<path d="M206.097 134L226.097 4" stroke="#E1E1E1"/>
<path d="M211.097 134L231.097 4" stroke="#E1E1E1"/>
<path d="M216.097 134L236.097 4" stroke="#E1E1E1"/>
<path d="M221.097 134L241.097 4" stroke="#E1E1E1"/>
<path d="M226.097 134L246.097 4" stroke="#E1E1E1"/>
<path d="M231.097 134L251.097 4" stroke="#E1E1E1"/>
<path d="M236.097 134L256.097 4" stroke="#E1E1E1"/>
<path d="M241.097 134L261.097 4" stroke="#E1E1E1"/>
<path d="M246.097 134L266.097 4" stroke="#E1E1E1"/>
<path d="M251.097 134L271.097 4" stroke="#E1E1E1"/>
<path d="M256.097 134L276.097 4" stroke="#E1E1E1"/>
<path d="M261.097 134L281.097 4" stroke="#E1E1E1"/>
<path d="M266.097 134L286.097 4" stroke="#E1E1E1"/>
<path d="M271.097 134L291.097 4" stroke="#E1E1E1"/>
<path d="M276.097 134L296.097 4" stroke="#E1E1E1"/>
<path d="M281.097 134L301.097 4" stroke="#E1E1E1"/>
<path d="M286.097 134L306.097 4" stroke="#E1E1E1"/>
<path d="M291.097 134L311.097 4" stroke="#E1E1E1"/>
<path d="M296.097 134L316.097 4" stroke="#E1E1E1"/>
<path d="M301.097 134L321.097 4" stroke="#E1E1E1"/>
<path d="M306.097 134L326.097 4" stroke="#E1E1E1"/>
<path d="M311.097 134L331.097 4" stroke="#E1E1E1"/>
<path d="M316.097 134L336.097 4" stroke="#E1E1E1"/>
<path d="M321.097 134L341.097 4" stroke="#E1E1E1"/>
<path d="M326.097 134L346.097 4" stroke="#E1E1E1"/>
<path d="M331.097 134L351.097 4" stroke="#E1E1E1"/>
<path d="M336.097 134L356.097 4" stroke="#E1E1E1"/>
<path d="M341.097 134L361.097 4" stroke="#E1E1E1"/>
<path d="M346.097 134L366.097 4" stroke="#E1E1E1"/>
<path d="M351.097 134L371.097 4" stroke="#E1E1E1"/>
<path d="M356.097 134L376.097 4" stroke="#E1E1E1"/>
<path d="M361.097 134L381.097 4" stroke="#E1E1E1"/>
<path d="M366.097 134L386.097 4" stroke="#E1E1E1"/>
<path d="M371.097 134L391.097 4" stroke="#E1E1E1"/>
<path d="M376.097 134L396.097 4" stroke="#E1E1E1"/>
<path d="M381.097 134L401.097 4" stroke="#E1E1E1"/>
<path d="M386.097 134L406.097 4" stroke="#E1E1E1"/>
</g>
<rect x="382" width="9" height="9" fill="#F3F3F3"/>
<path d="M391.5 134H216V69.5H0.5V4H166" stroke="#E1E1E1"/>
</svg>
