<svg width="489" height="124" viewBox="0 0 489 124" fill="none" xmlns="http://www.w3.org/2000/svg">
<path d="M4 0V51H198V120H422.5" stroke="#E1E1E1"/>
<mask id="mask0_134_32847" style="mask-type:alpha" maskUnits="userSpaceOnUse" x="4" y="0" width="485" height="120">
<path fill-rule="evenodd" clip-rule="evenodd" d="M198 0H4V51H198V120H418V115H422V84H489V0H418H406H198Z" fill="#D9D9D9"/>
</mask>
<g mask="url(#mask0_134_32847)">
<path d="M-16 120L4 0" stroke="#E1E1E1"/>
<path d="M-11 120L9 0" stroke="#E1E1E1"/>
<path d="M-6 120L14 0" stroke="#E1E1E1"/>
<path d="M-1 120L19 0" stroke="#E1E1E1"/>
<path d="M4 120L24 0" stroke="#E1E1E1"/>
<path d="M9 120L29 0" stroke="#E1E1E1"/>
<path d="M14 120L34 0" stroke="#E1E1E1"/>
<path d="M19 120L39 0" stroke="#E1E1E1"/>
<path d="M24 120L44 0" stroke="#E1E1E1"/>
<path d="M29 120L49 0" stroke="#E1E1E1"/>
<path d="M34 120L54 0" stroke="#E1E1E1"/>
<path d="M39 120L59 0" stroke="#E1E1E1"/>
<path d="M44 120L64 0" stroke="#E1E1E1"/>
<path d="M49 120L69 0" stroke="#E1E1E1"/>
<path d="M54 120L74 0" stroke="#E1E1E1"/>
<path d="M59 120L79 0" stroke="#E1E1E1"/>
<path d="M64 120L84 0" stroke="#E1E1E1"/>
<path d="M69 120L89 0" stroke="#E1E1E1"/>
<path d="M74 120L94 0" stroke="#E1E1E1"/>
<path d="M79 120L99 0" stroke="#E1E1E1"/>
<path d="M84 120L104 0" stroke="#E1E1E1"/>
<path d="M89 120L109 0" stroke="#E1E1E1"/>
<path d="M94 120L114 0" stroke="#E1E1E1"/>
<path d="M99 120L119 0" stroke="#E1E1E1"/>
<path d="M104 120L124 0" stroke="#E1E1E1"/>
<path d="M109 120L129 0" stroke="#E1E1E1"/>
<path d="M114 120L134 0" stroke="#E1E1E1"/>
<path d="M119 120L139 0" stroke="#E1E1E1"/>
<path d="M124 120L144 0" stroke="#E1E1E1"/>
<path d="M129 120L149 0" stroke="#E1E1E1"/>
<path d="M134 120L154 0" stroke="#E1E1E1"/>
<path d="M139 120L159 0" stroke="#E1E1E1"/>
<path d="M144 120L164 0" stroke="#E1E1E1"/>
<path d="M149 120L169 0" stroke="#E1E1E1"/>
<path d="M154 120L174 0" stroke="#E1E1E1"/>
<path d="M159 120L179 0" stroke="#E1E1E1"/>
<path d="M164 120L184 0" stroke="#E1E1E1"/>
<path d="M169 120L189 0" stroke="#E1E1E1"/>
<path d="M174 120L194 0" stroke="#E1E1E1"/>
<path d="M179 120L199 0" stroke="#E1E1E1"/>
<path d="M184 120L204 0" stroke="#E1E1E1"/>
<path d="M189 120L209 0" stroke="#E1E1E1"/>
<path d="M194 120L214 0" stroke="#E1E1E1"/>
<path d="M199 120L219 0" stroke="#E1E1E1"/>
<path d="M204 120L224 0" stroke="#E1E1E1"/>
<path d="M209 120L229 0" stroke="#E1E1E1"/>
<path d="M214 120L234 0" stroke="#E1E1E1"/>
<path d="M219 120L239 0" stroke="#E1E1E1"/>
<path d="M224 120L244 0" stroke="#E1E1E1"/>
<path d="M229 120L249 0" stroke="#E1E1E1"/>
<path d="M234 120L254 0" stroke="#E1E1E1"/>
<path d="M239 120L259 0" stroke="#E1E1E1"/>
<path d="M244 120L264 0" stroke="#E1E1E1"/>
<path d="M249 120L269 0" stroke="#E1E1E1"/>
<path d="M254 120L274 0" stroke="#E1E1E1"/>
<path d="M259 120L279 0" stroke="#E1E1E1"/>
<path d="M264 120L284 0" stroke="#E1E1E1"/>
<path d="M269 120L289 0" stroke="#E1E1E1"/>
<path d="M274 120L294 0" stroke="#E1E1E1"/>
<path d="M279 120L299 0" stroke="#E1E1E1"/>
<path d="M284 120L304 0" stroke="#E1E1E1"/>
<path d="M289 120L309 0" stroke="#E1E1E1"/>
<path d="M294 120L314 0" stroke="#E1E1E1"/>
<path d="M299 120L319 0" stroke="#E1E1E1"/>
<path d="M304 120L324 0" stroke="#E1E1E1"/>
<path d="M309 120L329 0" stroke="#E1E1E1"/>
<path d="M314 120L334 0" stroke="#E1E1E1"/>
<path d="M319 120L339 0" stroke="#E1E1E1"/>
<path d="M324 120L344 0" stroke="#E1E1E1"/>
<path d="M329 120L349 0" stroke="#E1E1E1"/>
<path d="M334 120L354 0" stroke="#E1E1E1"/>
<path d="M339 120L359 0" stroke="#E1E1E1"/>
<path d="M344 120L364 0" stroke="#E1E1E1"/>
<path d="M349 120L369 0" stroke="#E1E1E1"/>
<path d="M354 120L374 0" stroke="#E1E1E1"/>
<path d="M359 120L379 0" stroke="#E1E1E1"/>
<path d="M364 120L384 0" stroke="#E1E1E1"/>
<path d="M369 120L389 0" stroke="#E1E1E1"/>
<path d="M374 120L394 0" stroke="#E1E1E1"/>
<path d="M379 120L399 0" stroke="#E1E1E1"/>
<path d="M384 120L404 0" stroke="#E1E1E1"/>
<path d="M389 120L409 0" stroke="#E1E1E1"/>
<path d="M394 120L414 0" stroke="#E1E1E1"/>
<path d="M399 120L419 0" stroke="#E1E1E1"/>
<path d="M404 120L424 0" stroke="#E1E1E1"/>
<path d="M409 120L429 0" stroke="#E1E1E1"/>
<path d="M414 120L434 0" stroke="#E1E1E1"/>
<path d="M419 120L439 0" stroke="#E1E1E1"/>
<path d="M424 120L444 0" stroke="#E1E1E1"/>
<path d="M429 120L449 0" stroke="#E1E1E1"/>
<path d="M434 120L454 0" stroke="#E1E1E1"/>
<path d="M439 120L459 0" stroke="#E1E1E1"/>
<path d="M444 120L464 0" stroke="#E1E1E1"/>
<path d="M449 120L469 0" stroke="#E1E1E1"/>
<path d="M454 120L474 0" stroke="#E1E1E1"/>
<path d="M459 120L479 0" stroke="#E1E1E1"/>
<path d="M464 120L484 0" stroke="#E1E1E1"/>
<path d="M469 120L489 0" stroke="#E1E1E1"/>
<path d="M474 120L494 0" stroke="#E1E1E1"/>
<path d="M479 120L499 0" stroke="#E1E1E1"/>
<path d="M484 120L504 0" stroke="#E1E1E1"/>
<path d="M489 120L509 0" stroke="#E1E1E1"/>
</g>
<rect y="46" width="9" height="9" fill="#F3F3F3"/>
<rect x="418" y="115" width="9" height="9" fill="#F3F3F3"/>
</svg>
